<svg width="512" height="512" viewBox="0 0 512 512" fill="none" xmlns="http://www.w3.org/2000/svg">
<rect width="512" height="512" fill="#083E64"/>
<path d="M241.283 103.361L116.971 175.133V130.133L220.5 70.3601L241.283 103.361Z" fill="#F3BB21"/>
<path d="M241.283 103.361L220.5 70.3601L255.535 95.1326L241.283 103.361Z" fill="#C89200"/>
<path d="M78 167.066C78 158.135 82.765 149.882 90.5 145.416L116.971 130.133V175.133L78 167.066Z" fill="#F3BB21"/>
<path d="M78 312.5V167.066L116.971 175.133V335.133L78 312.5Z" fill="#F3BB21"/>
<path d="M90.5 364.849C82.7651 360.384 78.0002 352.13 78 343.199V312.5L116.971 335.133V380.132L90.5 364.849Z" fill="#F3BB21"/>
<path d="M219.5 439.328L240 406.163L255.535 415.133L219.5 439.328Z" fill="#2A9D8F"/>
<path d="M240 406.163L219.5 439.328L116.971 380.132L147 352.47L240 406.163Z" fill="#2A9D8F"/>
<path d="M134.592 345.306L147 352.47L116.971 380.132L134.592 345.306Z" fill="#2A9D8F"/>
<path d="M129 342.078L134.592 345.306L116.971 380.132L129 342.078Z" fill="#2A9D8F"/>
<path d="M129 342.078L116.971 380.132V335.133L129 342.078Z" fill="#1F7E72"/>
<path d="M255.535 415.133L296.5 436.482L268.035 452.916C260.3 457.382 250.77 457.382 243.035 452.916L219.5 439.328L255.535 415.133Z" fill="#2A9D8F"/>
<path d="M296.5 436.482L270.5 406.493L394.1 335.133V380.132L296.5 436.482Z" fill="#FF9800"/>
<path d="M270.5 406.493L296.5 436.482L285.022 430.5L267 408.513L270.5 406.493Z" fill="#FF9800"/>
<path d="M255.535 415.133L267 408.513L285.022 430.5L255.535 415.133Z" fill="#D98200"/>
<path d="M433.07 309V343.199C433.07 352.13 428.305 360.384 420.57 364.849L394.1 380.132V335.133L433.07 309Z" fill="#FF9800"/>
<path fill-rule="evenodd" clip-rule="evenodd" d="M394.1 186V175.133C394.1 175.133 400.035 162.632 414.035 162.632C428.035 162.632 433.07 175.133 433.07 175.133L394.1 186Z" fill="#D98200"/>
<path fill-rule="evenodd" clip-rule="evenodd" d="M394.1 335.133V186L433.07 175.133V309L394.1 335.133Z" fill="#FF9800"/>
<path d="M202.071 285C207.54 294.378 205.433 305.795 197.366 310.499C189.298 315.203 178.325 311.414 172.856 302.036C167.387 292.658 169.494 281.241 177.562 276.537C185.629 271.833 196.602 275.622 202.071 285Z" fill="#FFF3C4"/>
<path d="M317.221 339.279C311.927 348.703 300.858 352.536 292.5 347.84C284.141 343.145 281.657 331.698 286.952 322.273C292.247 312.849 303.315 309.016 311.674 313.712C320.032 318.408 322.516 329.855 317.221 339.279Z" fill="#FFF3C4"/>
<path d="M362.147 257.147C357.373 265.445 347.233 268.797 339.5 264.634C331.766 260.471 329.366 250.369 334.14 242.07C338.914 233.772 349.054 230.419 356.787 234.582C364.521 238.746 366.921 248.848 362.147 257.147Z" fill="#FFF3C4"/>
<path d="M169.336 207.593L165.616 196.619L176.98 194.354L244.856 233.543L237.213 246.781L169.336 207.593Z" fill="#FFE9A8"/>
<path d="M248.509 265.661H263.509V372.908L256.009 379.661L248.509 372.908V265.661Z" fill="#FFE9A8"/>
<path d="M240 241.598L241.5 239L256.222 247.5L254.722 250.098L240 241.598Z" fill="#FAFAFA"/>
<path d="M254.509 248.661H257.509V265.661H254.509V248.661Z" fill="#FAFAFA"/>
<path d="M364.119 183L366.601 183.299L365.619 185.598L256.5 248.598L255 246L364.119 183Z" fill="#B8F0F0"/>
<path d="M265.509 247.161C265.509 252.408 261.256 256.661 256.009 256.661C250.763 256.661 246.509 252.408 246.509 247.161C246.509 241.914 250.763 237.661 256.009 237.661C261.256 237.661 265.509 241.914 265.509 247.161Z" fill="#FFE9A8"/>
<path d="M269.331 103.118L304.366 78.3455L397.731 132.25L378.246 166L269.331 103.118Z" fill="#F65B59"/>
<path d="M368.757 113.818C366.649 108.713 369.078 102.866 374.182 100.757C379.287 98.6489 385.134 101.078 387.243 106.182L406.243 152.182C408.351 157.287 405.922 163.134 400.818 165.243C395.713 167.351 389.866 164.922 387.757 159.818L368.757 113.818Z" fill="#F65B59"/>
<path d="M350.839 169.965C345.336 170.428 340.499 166.343 340.035 160.84C339.571 155.337 343.657 150.499 349.16 150.035L396.053 146.084C401.556 145.62 406.394 149.705 406.858 155.209C407.322 160.712 403.236 165.55 397.733 166.013L350.839 169.965Z" fill="#F65B59"/>
<path d="M255.535 95.1326L290.57 70.3601L367.035 114.507L348.035 148.537L255.535 95.1326Z" fill="#F65B59"/>
<path d="M243.035 57.3494C250.77 52.8835 260.3 52.8835 268.035 57.3494L290.57 70.3601L255.535 95.1326L220.5 70.3601L243.035 57.3494Z" fill="#F65B59"/>
</svg>
