<svg width="567" height="567" viewBox="0 0 567 567" fill="none" xmlns="http://www.w3.org/2000/svg">
<rect width="567" height="567" fill="#083E64"/>
<path d="M222.5 205.5L302.5 243.5V366.5L288.052 389.291L275 366.5V263L210.5 227.5L198.5 205.5H222.5Z" fill="#FFE08A"/>
<path d="M220 297C220 306.941 214.404 315 207.5 315C200.596 315 195 306.941 195 297C195 287.059 200.596 279 207.5 279C214.404 279 220 287.059 220 297Z" fill="#EEEEEE" fill-opacity="0.933333"/>
<path d="M365 320C365 329.941 359.404 338 352.5 338C345.596 338 340 329.941 340 320C340 310.059 345.596 302 352.5 302C359.404 302 365 310.059 365 320Z" fill="#EEEEEE" fill-opacity="0.933333"/>
<path d="M400 268C400 276.837 395.523 284 390 284C384.477 284 380 276.837 380 268C380 259.163 384.477 252 390 252C395.523 252 400 259.163 400 268Z" fill="#EEEEEE"/>
<path d="M316 254C316 270.569 302.569 284 286 284C269.431 284 256 270.569 256 254C256 237.431 269.431 224 286 224C302.569 224 316 237.431 316 254Z" fill="#FFE08A"/>
<path d="M146.338 330L106.5 352C106.5 352 101.338 354 101.338 353.5C101.338 353 101.338 180.085 101.338 180.085C101.338 171.934 105.747 164.42 112.862 160.443L276.061 69.243C280.788 66.6019 286.057 65.8481 291 66.7356L285.534 115.5L146.338 193.285V330Z" fill="#F3BB21"/>
<path d="M101.338 362.484C103.675 359.469 146.338 334.5 146.338 337.5C146.338 340.5 146.338 349.283 146.338 349.283L287.037 427.91L295 451.5C295 451.5 286.5 467 295 469C303.5 471 280.5 475.5 280.5 475.5L112.862 382.126C105.747 378.15 99 365.5 101.338 362.484Z" fill="#BD2430"/>
<path d="M282.5 474.5C286.439 472.674 288 427 288 427L427.738 349.283V195.5C427.738 183.074 437.812 173 450.238 173C462.664 173 472.738 183.074 472.738 195.5V362.484C472.738 370.635 468.329 378.15 461.214 382.126L299.5 471.5C292.679 475.312 278.561 476.326 282.5 474.5Z" fill="#FF9800"/>
<path fill-rule="evenodd" clip-rule="evenodd" d="M347.971 147.446L383 168.5C393.784 174.675 406.554 171.641 412.729 160.858C418.904 150.074 415.168 136.327 404.384 130.152L377.225 114.6L387.062 144.353L352.034 146.613C350.612 146.705 349.25 146.992 347.971 147.446Z" fill="#F65B59"/>
<path d="M386.092 93.6357C393.958 91.0353 402.442 95.3032 405.043 103.169L421.638 153.364C423.096 157.774 422.429 162.612 419.831 166.463C417.233 170.313 412.997 172.743 408.362 173.042L353.966 176.551C345.699 177.084 338.564 170.815 338.031 162.548C337.59 155.702 341.812 149.634 347.971 147.446C349.25 146.992 350.612 146.705 352.034 146.613L387.062 144.353L377.225 114.6L376.559 112.587C373.959 104.721 378.227 96.2363 386.092 93.6357Z" fill="#F65B59"/>
<path d="M377.225 114.6L387.062 144.353L352.034 146.613C350.612 146.705 349.25 146.992 347.971 147.446C323.965 133.018 293.633 109.905 288 114.6C282.367 119.294 283 81 285.5 72.5C288 64 293.895 66.8834 298.218 69.3585L377.225 114.6Z" fill="#F65B59"/>
</svg>
